<?xml version="1.0" encoding="UTF-8" standalone="no"?>
<!DOCTYPE svg PUBLIC "-//W3C//DTD SVG 1.1//EN"
 "http://www.w3.org/Graphics/SVG/1.1/DTD/svg11.dtd">
<!-- Generated by graphviz version 2.40.1 (20161225.0304)
 -->
<!-- Title: call_graph Pages: 1 -->
<svg width="1797pt" height="1432pt"
 viewBox="0.00 0.00 1797.00 1432.00" xmlns="http://www.w3.org/2000/svg" xmlns:xlink="http://www.w3.org/1999/xlink">
<g id="graph0" class="graph" transform="scale(1 1) rotate(0) translate(4 1428)">
<title>call_graph</title>
<polygon fill="#ffffff" stroke="transparent" points="-4,4 -4,-1428 1793,-1428 1793,4 -4,4"/>
<!-- 2 -->
<g id="node1" class="node">
<title>2</title>
<path fill="none" stroke="#0000ff" d="M611,-546.5C611,-546.5 840,-546.5 840,-546.5 846,-546.5 852,-552.5 852,-558.5 852,-558.5 852,-570.5 852,-570.5 852,-576.5 846,-582.5 840,-582.5 840,-582.5 611,-582.5 611,-582.5 605,-582.5 599,-576.5 599,-570.5 599,-570.5 599,-558.5 599,-558.5 599,-552.5 605,-546.5 611,-546.5"/>
<text text-anchor="middle" x="725.5" y="-560.8" font-family="Times,serif" font-size="14.00" fill="#0000ff">Process_trajectories___Process_trajectories</text>
</g>
<!-- 64 -->
<g id="node39" class="node">
<title>64</title>
<path fill="none" stroke="#0000ff" d="M970,-491.5C970,-491.5 1071,-491.5 1071,-491.5 1077,-491.5 1083,-497.5 1083,-503.5 1083,-503.5 1083,-515.5 1083,-515.5 1083,-521.5 1077,-527.5 1071,-527.5 1071,-527.5 970,-527.5 970,-527.5 964,-527.5 958,-521.5 958,-515.5 958,-515.5 958,-503.5 958,-503.5 958,-497.5 964,-491.5 970,-491.5"/>
<text text-anchor="middle" x="1020.5" y="-505.8" font-family="Times,serif" font-size="14.00" fill="#0000ff">cellfun2___cellfun2</text>
</g>
<!-- 2&#45;&gt;64 -->
<g id="edge1" class="edge">
<title>2&#45;&gt;64</title>
<path fill="none" stroke="#000000" d="M822.094,-546.4909C862.9708,-538.8699 909.7928,-530.1403 947.6832,-523.076"/>
<polygon fill="#000000" stroke="#000000" points="948.4274,-526.4977 957.6165,-521.224 947.1443,-519.6162 948.4274,-526.4977"/>
</g>
<!-- 4 -->
<g id="node2" class="node">
<title>4</title>
<path fill="none" stroke="#0000ff" d="M612.5,-601.5C612.5,-601.5 838.5,-601.5 838.5,-601.5 844.5,-601.5 850.5,-607.5 850.5,-613.5 850.5,-613.5 850.5,-625.5 850.5,-625.5 850.5,-631.5 844.5,-637.5 838.5,-637.5 838.5,-637.5 612.5,-637.5 612.5,-637.5 606.5,-637.5 600.5,-631.5 600.5,-625.5 600.5,-625.5 600.5,-613.5 600.5,-613.5 600.5,-607.5 606.5,-601.5 612.5,-601.5"/>
<text text-anchor="middle" x="725.5" y="-615.8" font-family="Times,serif" font-size="14.00" fill="#0000ff">Read_Plate_Design___Read_Plate_Design</text>
</g>
<!-- 35 -->
<g id="node22" class="node">
<title>35</title>
<path fill="none" stroke="#0000ff" d="M961,-583.5C961,-583.5 1080,-583.5 1080,-583.5 1086,-583.5 1092,-589.5 1092,-595.5 1092,-595.5 1092,-607.5 1092,-607.5 1092,-613.5 1086,-619.5 1080,-619.5 1080,-619.5 961,-619.5 961,-619.5 955,-619.5 949,-613.5 949,-607.5 949,-607.5 949,-595.5 949,-595.5 949,-589.5 955,-583.5 961,-583.5"/>
<text text-anchor="middle" x="1020.5" y="-597.8" font-family="Times,serif" font-size="14.00" fill="#0000ff">cellstr2str___cellstr2str</text>
</g>
<!-- 4&#45;&gt;35 -->
<g id="edge2" class="edge">
<title>4&#45;&gt;35</title>
<path fill="none" stroke="#000000" d="M850.6066,-611.8664C880.4053,-610.0482 911.4525,-608.1537 938.7296,-606.4894"/>
<polygon fill="#000000" stroke="#000000" points="939.2205,-609.966 948.9887,-605.8634 938.7941,-602.979 939.2205,-609.966"/>
</g>
<!-- 4&#45;&gt;64 -->
<g id="edge3" class="edge">
<title>4&#45;&gt;64</title>
<path fill="none" stroke="#000000" d="M837.279,-601.4245C848.4622,-598.5519 859.5398,-595.2608 870,-591.5 881.3888,-587.4054 939.0882,-555.3957 979.6349,-532.6065"/>
<polygon fill="#000000" stroke="#000000" points="981.5147,-535.5648 988.5128,-527.6101 978.0815,-529.4645 981.5147,-535.5648"/>
</g>
<!-- 5 -->
<g id="node3" class="node">
<title>5</title>
<path fill="none" stroke="#0000ff" d="M618,-784.5C618,-784.5 833,-784.5 833,-784.5 839,-784.5 845,-790.5 845,-796.5 845,-796.5 845,-808.5 845,-808.5 845,-814.5 839,-820.5 833,-820.5 833,-820.5 618,-820.5 618,-820.5 612,-820.5 606,-814.5 606,-808.5 606,-808.5 606,-796.5 606,-796.5 606,-790.5 612,-784.5 618,-784.5"/>
<text text-anchor="middle" x="725.5" y="-798.8" font-family="Times,serif" font-size="14.00" fill="#0000ff">FitQuadratic_Ftest___FitQuadratic_Ftest</text>
</g>
<!-- 6 -->
<g id="node4" class="node">
<title>6</title>
<path fill="none" stroke="#0000ff" d="M938,-784.5C938,-784.5 1103,-784.5 1103,-784.5 1109,-784.5 1115,-790.5 1115,-796.5 1115,-796.5 1115,-808.5 1115,-808.5 1115,-814.5 1109,-820.5 1103,-820.5 1103,-820.5 938,-820.5 938,-820.5 932,-820.5 926,-814.5 926,-808.5 926,-808.5 926,-796.5 926,-796.5 926,-790.5 932,-784.5 938,-784.5"/>
<text text-anchor="middle" x="1020.5" y="-798.8" font-family="Times,serif" font-size="14.00" fill="#0000ff">Ftest_flat___FitQuadratic_Ftest</text>
</g>
<!-- 5&#45;&gt;6 -->
<g id="edge4" class="edge">
<title>5&#45;&gt;6</title>
<path fill="none" stroke="#000000" d="M845.0625,-802.5C868.4356,-802.5 892.7801,-802.5 915.6312,-802.5"/>
<polygon fill="#000000" stroke="#000000" points="915.6698,-806.0001 925.6698,-802.5 915.6698,-799.0001 915.6698,-806.0001"/>
</g>
<!-- 56 -->
<g id="node34" class="node">
<title>56</title>
<path fill="none" stroke="#0000ff" d="M973,-839.5C973,-839.5 1068,-839.5 1068,-839.5 1074,-839.5 1080,-845.5 1080,-851.5 1080,-851.5 1080,-863.5 1080,-863.5 1080,-869.5 1074,-875.5 1068,-875.5 1068,-875.5 973,-875.5 973,-875.5 967,-875.5 961,-869.5 961,-863.5 961,-863.5 961,-851.5 961,-851.5 961,-845.5 967,-839.5 973,-839.5"/>
<text text-anchor="middle" x="1020.5" y="-853.8" font-family="Times,serif" font-size="14.00" fill="#0000ff">argmax___argmax</text>
</g>
<!-- 5&#45;&gt;56 -->
<g id="edge5" class="edge">
<title>5&#45;&gt;56</title>
<path fill="none" stroke="#000000" d="M822.094,-820.5091C864.0505,-828.3315 912.2706,-837.3216 950.6669,-844.4803"/>
<polygon fill="#000000" stroke="#000000" points="950.2414,-847.9612 960.7135,-846.3534 951.5244,-841.0798 950.2414,-847.9612"/>
</g>
<!-- 8 -->
<g id="node5" class="node">
<title>8</title>
<path fill="none" stroke="#0000ff" d="M16.5,-784.5C16.5,-784.5 239.5,-784.5 239.5,-784.5 245.5,-784.5 251.5,-790.5 251.5,-796.5 251.5,-796.5 251.5,-808.5 251.5,-808.5 251.5,-814.5 245.5,-820.5 239.5,-820.5 239.5,-820.5 16.5,-820.5 16.5,-820.5 10.5,-820.5 4.5,-814.5 4.5,-808.5 4.5,-808.5 4.5,-796.5 4.5,-796.5 4.5,-790.5 10.5,-784.5 16.5,-784.5"/>
<text text-anchor="middle" x="128" y="-798.8" font-family="Times,serif" font-size="14.00" fill="#0000ff">filter_DeltaMOMP___filter_DeltaMOMP</text>
</g>
<!-- 23 -->
<g id="node17" class="node">
<title>23</title>
<path fill="none" stroke="#0000ff" d="M334,-784.5C334,-784.5 503,-784.5 503,-784.5 509,-784.5 515,-790.5 515,-796.5 515,-796.5 515,-808.5 515,-808.5 515,-814.5 509,-820.5 503,-820.5 503,-820.5 334,-820.5 334,-820.5 328,-820.5 322,-814.5 322,-808.5 322,-808.5 322,-796.5 322,-796.5 322,-790.5 328,-784.5 334,-784.5"/>
<text text-anchor="middle" x="418.5" y="-798.8" font-family="Times,serif" font-size="14.00" fill="#0000ff">get_newfigure___get_newfigure</text>
</g>
<!-- 8&#45;&gt;23 -->
<g id="edge6" class="edge">
<title>8&#45;&gt;23</title>
<path fill="none" stroke="#000000" d="M251.6194,-802.5C271.6081,-802.5 292.1558,-802.5 311.7024,-802.5"/>
<polygon fill="#000000" stroke="#000000" points="311.8245,-806.0001 321.8245,-802.5 311.8244,-799.0001 311.8245,-806.0001"/>
</g>
<!-- 9 -->
<g id="node6" class="node">
<title>9</title>
<path fill="none" stroke="#0000ff" d="M625.5,-949.5C625.5,-949.5 825.5,-949.5 825.5,-949.5 831.5,-949.5 837.5,-955.5 837.5,-961.5 837.5,-961.5 837.5,-973.5 837.5,-973.5 837.5,-979.5 831.5,-985.5 825.5,-985.5 825.5,-985.5 625.5,-985.5 625.5,-985.5 619.5,-985.5 613.5,-979.5 613.5,-973.5 613.5,-973.5 613.5,-961.5 613.5,-961.5 613.5,-955.5 619.5,-949.5 625.5,-949.5"/>
<text text-anchor="middle" x="725.5" y="-963.8" font-family="Times,serif" font-size="14.00" fill="#0000ff">Load_Plate_Data___Load_Plate_Data</text>
</g>
<!-- 10 -->
<g id="node7" class="node">
<title>10</title>
<path fill="none" stroke="#0000ff" d="M918,-949.5C918,-949.5 1123,-949.5 1123,-949.5 1129,-949.5 1135,-955.5 1135,-961.5 1135,-961.5 1135,-973.5 1135,-973.5 1135,-979.5 1129,-985.5 1123,-985.5 1123,-985.5 918,-985.5 918,-985.5 912,-985.5 906,-979.5 906,-973.5 906,-973.5 906,-961.5 906,-961.5 906,-955.5 912,-949.5 918,-949.5"/>
<text text-anchor="middle" x="1020.5" y="-963.8" font-family="Times,serif" font-size="14.00" fill="#0000ff">assert_TrajLength___Load_Plate_Data</text>
</g>
<!-- 9&#45;&gt;10 -->
<g id="edge7" class="edge">
<title>9&#45;&gt;10</title>
<path fill="none" stroke="#000000" d="M837.8684,-967.5C856.8643,-967.5 876.6857,-967.5 895.97,-967.5"/>
<polygon fill="#000000" stroke="#000000" points="895.9984,-971.0001 905.9983,-967.5 895.9983,-964.0001 895.9984,-971.0001"/>
</g>
<!-- 11 -->
<g id="node8" class="node">
<title>11</title>
<path fill="none" stroke="#0000ff" d="M344,-729.5C344,-729.5 493,-729.5 493,-729.5 499,-729.5 505,-735.5 505,-741.5 505,-741.5 505,-753.5 505,-753.5 505,-759.5 499,-765.5 493,-765.5 493,-765.5 344,-765.5 344,-765.5 338,-765.5 332,-759.5 332,-753.5 332,-753.5 332,-741.5 332,-741.5 332,-735.5 338,-729.5 344,-729.5"/>
<text text-anchor="middle" x="418.5" y="-743.8" font-family="Times,serif" font-size="14.00" fill="#0000ff">LoadFitData___LoadFitData</text>
</g>
<!-- 11&#45;&gt;2 -->
<g id="edge11" class="edge">
<title>11&#45;&gt;2</title>
<path fill="none" stroke="#000000" d="M431.5642,-729.3023C456.5065,-696.0479 514.3948,-625.7411 581,-591.5 584.5996,-589.6495 588.3079,-587.9246 592.0974,-586.3169"/>
<polygon fill="#000000" stroke="#000000" points="593.6409,-589.471 601.669,-582.5572 591.0817,-582.9556 593.6409,-589.471"/>
</g>
<!-- 11&#45;&gt;4 -->
<g id="edge8" class="edge">
<title>11&#45;&gt;4</title>
<path fill="none" stroke="#000000" d="M441.2531,-729.4908C471.4136,-706.5632 527.1223,-667.4228 581,-646.5 586.5628,-644.3398 592.3149,-642.3489 598.1754,-640.5145"/>
<polygon fill="#000000" stroke="#000000" points="599.5287,-643.7642 608.1261,-637.5727 597.5441,-637.0514 599.5287,-643.7642"/>
</g>
<!-- 11&#45;&gt;5 -->
<g id="edge12" class="edge">
<title>11&#45;&gt;5</title>
<path fill="none" stroke="#000000" d="M505.2429,-763.0403C539.2783,-769.1378 578.752,-776.2096 614.8022,-782.6682"/>
<polygon fill="#000000" stroke="#000000" points="614.4116,-786.1538 624.8721,-784.4722 615.6461,-779.2635 614.4116,-786.1538"/>
</g>
<!-- 11&#45;&gt;9 -->
<g id="edge9" class="edge">
<title>11&#45;&gt;9</title>
<path fill="none" stroke="#000000" d="M505.1309,-752.2698C519.9734,-756.6696 534.0982,-763.6475 545,-774.5 598.1945,-827.454 527.3079,-887.0506 581,-939.5 587.7791,-946.1221 595.6265,-951.4133 604.0906,-955.62"/>
<polygon fill="#000000" stroke="#000000" points="602.9338,-958.9351 613.4956,-959.7708 605.7602,-952.5311 602.9338,-958.9351"/>
</g>
<!-- 13 -->
<g id="node10" class="node">
<title>13</title>
<path fill="none" stroke="#0000ff" d="M593,-729.5C593,-729.5 858,-729.5 858,-729.5 864,-729.5 870,-735.5 870,-741.5 870,-741.5 870,-753.5 870,-753.5 870,-759.5 864,-765.5 858,-765.5 858,-765.5 593,-765.5 593,-765.5 587,-765.5 581,-759.5 581,-753.5 581,-753.5 581,-741.5 581,-741.5 581,-735.5 587,-729.5 593,-729.5"/>
<text text-anchor="middle" x="725.5" y="-743.8" font-family="Times,serif" font-size="14.00" fill="#0000ff">Evaluate_MOMPTime___Evaluate_MOMPTime</text>
</g>
<!-- 11&#45;&gt;13 -->
<g id="edge10" class="edge">
<title>11&#45;&gt;13</title>
<path fill="none" stroke="#000000" d="M505.2429,-747.5C525.7854,-747.5 548.3089,-747.5 570.8651,-747.5"/>
<polygon fill="#000000" stroke="#000000" points="570.8747,-751.0001 580.8747,-747.5 570.8746,-744.0001 570.8747,-751.0001"/>
</g>
<!-- 12 -->
<g id="node9" class="node">
<title>12</title>
<path fill="none" stroke="#0000ff" d="M621,-656.5C621,-656.5 830,-656.5 830,-656.5 836,-656.5 842,-662.5 842,-668.5 842,-668.5 842,-680.5 842,-680.5 842,-686.5 836,-692.5 830,-692.5 830,-692.5 621,-692.5 621,-692.5 615,-692.5 609,-686.5 609,-680.5 609,-680.5 609,-668.5 609,-668.5 609,-662.5 615,-656.5 621,-656.5"/>
<text text-anchor="middle" x="725.5" y="-670.8" font-family="Times,serif" font-size="14.00" fill="#0000ff">compile_ExpData___compile_ExpData</text>
</g>
<!-- 12&#45;&gt;35 -->
<g id="edge14" class="edge">
<title>12&#45;&gt;35</title>
<path fill="none" stroke="#000000" d="M825.6686,-656.4278C840.5824,-653.3504 855.7313,-650.0065 870,-646.5 898.0627,-639.6037 928.6789,-630.7067 954.9269,-622.6467"/>
<polygon fill="#000000" stroke="#000000" points="956.2399,-625.9042 964.7583,-619.6045 954.1706,-619.217 956.2399,-625.9042"/>
</g>
<!-- 41 -->
<g id="node26" class="node">
<title>41</title>
<path fill="none" stroke="#0000ff" d="M937.5,-656.5C937.5,-656.5 1103.5,-656.5 1103.5,-656.5 1109.5,-656.5 1115.5,-662.5 1115.5,-668.5 1115.5,-668.5 1115.5,-680.5 1115.5,-680.5 1115.5,-686.5 1109.5,-692.5 1103.5,-692.5 1103.5,-692.5 937.5,-692.5 937.5,-692.5 931.5,-692.5 925.5,-686.5 925.5,-680.5 925.5,-680.5 925.5,-668.5 925.5,-668.5 925.5,-662.5 931.5,-656.5 937.5,-656.5"/>
<text text-anchor="middle" x="1020.5" y="-670.8" font-family="Times,serif" font-size="14.00" fill="#0000ff">ReplaceName___ReplaceName</text>
</g>
<!-- 12&#45;&gt;41 -->
<g id="edge13" class="edge">
<title>12&#45;&gt;41</title>
<path fill="none" stroke="#000000" d="M842.0918,-674.5C866.1889,-674.5 891.4383,-674.5 915.1087,-674.5"/>
<polygon fill="#000000" stroke="#000000" points="915.1485,-678.0001 925.1484,-674.5 915.1484,-671.0001 915.1485,-678.0001"/>
</g>
<!-- 12&#45;&gt;64 -->
<g id="edge15" class="edge">
<title>12&#45;&gt;64</title>
<path fill="none" stroke="#000000" d="M842.0856,-662.0219C852.0771,-658.0192 861.5708,-652.9349 870,-646.5 898.7541,-624.5491 881.0879,-599.7303 906,-573.5 922.3878,-556.2451 944.4747,-542.4131 964.8776,-532.0847"/>
<polygon fill="#000000" stroke="#000000" points="966.6514,-535.1138 974.1069,-527.5861 963.5843,-528.8215 966.6514,-535.1138"/>
</g>
<!-- 14 -->
<g id="node11" class="node">
<title>14</title>
<path fill="none" stroke="#0000ff" d="M918.5,-729.5C918.5,-729.5 1122.5,-729.5 1122.5,-729.5 1128.5,-729.5 1134.5,-735.5 1134.5,-741.5 1134.5,-741.5 1134.5,-753.5 1134.5,-753.5 1134.5,-759.5 1128.5,-765.5 1122.5,-765.5 1122.5,-765.5 918.5,-765.5 918.5,-765.5 912.5,-765.5 906.5,-759.5 906.5,-753.5 906.5,-753.5 906.5,-741.5 906.5,-741.5 906.5,-735.5 912.5,-729.5 918.5,-729.5"/>
<text text-anchor="middle" x="1020.5" y="-743.8" font-family="Times,serif" font-size="14.00" fill="#0000ff">evalMOMP___Evaluate_MOMPTime</text>
</g>
<!-- 13&#45;&gt;14 -->
<g id="edge16" class="edge">
<title>13&#45;&gt;14</title>
<path fill="none" stroke="#000000" d="M870.4073,-747.5C879.0999,-747.5 887.8045,-747.5 896.4003,-747.5"/>
<polygon fill="#000000" stroke="#000000" points="896.4338,-751.0001 906.4338,-747.5 896.4337,-744.0001 896.4338,-751.0001"/>
</g>
<!-- 15 -->
<g id="node12" class="node">
<title>15</title>
<path fill="none" stroke="#0000ff" d="M1196.5,-866.5C1196.5,-866.5 1408.5,-866.5 1408.5,-866.5 1414.5,-866.5 1420.5,-872.5 1420.5,-878.5 1420.5,-878.5 1420.5,-890.5 1420.5,-890.5 1420.5,-896.5 1414.5,-902.5 1408.5,-902.5 1408.5,-902.5 1196.5,-902.5 1196.5,-902.5 1190.5,-902.5 1184.5,-896.5 1184.5,-890.5 1184.5,-890.5 1184.5,-878.5 1184.5,-878.5 1184.5,-872.5 1190.5,-866.5 1196.5,-866.5"/>
<text text-anchor="middle" x="1302.5" y="-880.8" font-family="Times,serif" font-size="14.00" fill="#0000ff">filter_smooth___Evaluate_MOMPTime</text>
</g>
<!-- 14&#45;&gt;15 -->
<g id="edge17" class="edge">
<title>14&#45;&gt;15</title>
<path fill="none" stroke="#000000" d="M1122.0842,-765.6446C1126.6568,-768.231 1130.9978,-771.1675 1135,-774.5 1165.5868,-799.9685 1140.1376,-831.3661 1171,-856.5 1173.0192,-858.1444 1175.1121,-859.6986 1177.2685,-861.1675"/>
<polygon fill="#000000" stroke="#000000" points="1175.5193,-864.2002 1185.8791,-866.4194 1179.1644,-858.2241 1175.5193,-864.2002"/>
</g>
<!-- 16 -->
<g id="node13" class="node">
<title>16</title>
<path fill="none" stroke="#0000ff" d="M1193,-811.5C1193,-811.5 1412,-811.5 1412,-811.5 1418,-811.5 1424,-817.5 1424,-823.5 1424,-823.5 1424,-835.5 1424,-835.5 1424,-841.5 1418,-847.5 1412,-847.5 1412,-847.5 1193,-847.5 1193,-847.5 1187,-847.5 1181,-841.5 1181,-835.5 1181,-835.5 1181,-823.5 1181,-823.5 1181,-817.5 1187,-811.5 1193,-811.5"/>
<text text-anchor="middle" x="1302.5" y="-825.8" font-family="Times,serif" font-size="14.00" fill="#0000ff">eval_Trajnoise___Evaluate_MOMPTime</text>
</g>
<!-- 14&#45;&gt;16 -->
<g id="edge18" class="edge">
<title>14&#45;&gt;16</title>
<path fill="none" stroke="#000000" d="M1112.2854,-765.5361C1120.1111,-768.1518 1127.7851,-771.125 1135,-774.5 1153.1159,-782.9742 1152.7928,-793.2236 1171,-801.5 1176.3771,-803.9443 1181.976,-806.1789 1187.7003,-808.2214"/>
<polygon fill="#000000" stroke="#000000" points="1186.8415,-811.6248 1197.4353,-811.4806 1189.0638,-804.9869 1186.8415,-811.6248"/>
</g>
<!-- 17 -->
<g id="node14" class="node">
<title>17</title>
<path fill="none" stroke="#0000ff" d="M1193.5,-756.5C1193.5,-756.5 1411.5,-756.5 1411.5,-756.5 1417.5,-756.5 1423.5,-762.5 1423.5,-768.5 1423.5,-768.5 1423.5,-780.5 1423.5,-780.5 1423.5,-786.5 1417.5,-792.5 1411.5,-792.5 1411.5,-792.5 1193.5,-792.5 1193.5,-792.5 1187.5,-792.5 1181.5,-786.5 1181.5,-780.5 1181.5,-780.5 1181.5,-768.5 1181.5,-768.5 1181.5,-762.5 1187.5,-756.5 1193.5,-756.5"/>
<text text-anchor="middle" x="1302.5" y="-770.8" font-family="Times,serif" font-size="14.00" fill="#0000ff">derivate_score___Evaluate_MOMPTime</text>
</g>
<!-- 14&#45;&gt;17 -->
<g id="edge19" class="edge">
<title>14&#45;&gt;17</title>
<path fill="none" stroke="#000000" d="M1134.7937,-758.443C1146.7214,-759.585 1158.9138,-760.7524 1171.0124,-761.9108"/>
<polygon fill="#000000" stroke="#000000" points="1170.8572,-765.4118 1181.1453,-762.8809 1171.5244,-758.4437 1170.8572,-765.4118"/>
</g>
<!-- 18 -->
<g id="node15" class="node">
<title>18</title>
<path fill="none" stroke="#0000ff" d="M1188,-701.5C1188,-701.5 1417,-701.5 1417,-701.5 1423,-701.5 1429,-707.5 1429,-713.5 1429,-713.5 1429,-725.5 1429,-725.5 1429,-731.5 1423,-737.5 1417,-737.5 1417,-737.5 1188,-737.5 1188,-737.5 1182,-737.5 1176,-731.5 1176,-725.5 1176,-725.5 1176,-713.5 1176,-713.5 1176,-707.5 1182,-701.5 1188,-701.5"/>
<text text-anchor="middle" x="1302.5" y="-715.8" font-family="Times,serif" font-size="14.00" fill="#0000ff">cutoff_dist_prob___Evaluate_MOMPTime</text>
</g>
<!-- 14&#45;&gt;18 -->
<g id="edge20" class="edge">
<title>14&#45;&gt;18</title>
<path fill="none" stroke="#000000" d="M1134.7937,-736.1517C1144.8702,-735.1512 1155.1357,-734.1319 1165.3739,-733.1154"/>
<polygon fill="#000000" stroke="#000000" points="1165.9897,-736.5715 1175.595,-732.1005 1165.298,-729.6058 1165.9897,-736.5715"/>
</g>
<!-- 19 -->
<g id="node16" class="node">
<title>19</title>
<path fill="none" stroke="#0000ff" d="M1183,-646.5C1183,-646.5 1422,-646.5 1422,-646.5 1428,-646.5 1434,-652.5 1434,-658.5 1434,-658.5 1434,-670.5 1434,-670.5 1434,-676.5 1428,-682.5 1422,-682.5 1422,-682.5 1183,-682.5 1183,-682.5 1177,-682.5 1171,-676.5 1171,-670.5 1171,-670.5 1171,-658.5 1171,-658.5 1171,-652.5 1177,-646.5 1183,-646.5"/>
<text text-anchor="middle" x="1302.5" y="-660.8" font-family="Times,serif" font-size="14.00" fill="#0000ff">DetermineMOMP___Evaluate_MOMPTime</text>
</g>
<!-- 14&#45;&gt;19 -->
<g id="edge22" class="edge">
<title>14&#45;&gt;19</title>
<path fill="none" stroke="#000000" d="M1110.243,-729.4597C1118.7844,-726.5874 1127.1702,-723.2865 1135,-719.5 1153.248,-710.6753 1152.5905,-699.9826 1171,-691.5 1175.336,-689.5021 1179.82,-687.6511 1184.4006,-685.9362"/>
<polygon fill="#000000" stroke="#000000" points="1185.6396,-689.2108 1193.9221,-682.6039 1183.3273,-682.6037 1185.6396,-689.2108"/>
</g>
<!-- 72 -->
<g id="node44" class="node">
<title>72</title>
<path fill="none" stroke="#0000ff" d="M1482,-650.5C1482,-650.5 1777,-650.5 1777,-650.5 1783,-650.5 1789,-656.5 1789,-662.5 1789,-662.5 1789,-674.5 1789,-674.5 1789,-680.5 1783,-686.5 1777,-686.5 1777,-686.5 1482,-686.5 1482,-686.5 1476,-686.5 1470,-680.5 1470,-674.5 1470,-674.5 1470,-662.5 1470,-662.5 1470,-656.5 1476,-650.5 1482,-650.5"/>
<text text-anchor="middle" x="1629.5" y="-664.8" font-family="Times,serif" font-size="14.00" fill="#0000ff">precomputed_normal_cdf___precomputed_normal_cdf</text>
</g>
<!-- 14&#45;&gt;72 -->
<g id="edge21" class="edge">
<title>14&#45;&gt;72</title>
<path fill="none" stroke="#000000" d="M1120.4963,-729.3729C1125.6572,-726.5305 1130.5418,-723.2604 1135,-719.5 1165.7358,-693.5751 1137.3835,-658.5617 1171,-636.5 1297.8005,-553.2837 1489.0665,-611.2806 1579.168,-646.6703"/>
<polygon fill="#000000" stroke="#000000" points="1578.0214,-649.9811 1588.6062,-650.4409 1580.6183,-643.4807 1578.0214,-649.9811"/>
</g>
<!-- 18&#45;&gt;72 -->
<g id="edge23" class="edge">
<title>18&#45;&gt;72</title>
<path fill="none" stroke="#000000" d="M1418.2481,-701.4475C1446.0231,-697.1157 1475.8133,-692.4695 1504.0073,-688.0723"/>
<polygon fill="#000000" stroke="#000000" points="1504.5662,-691.5275 1513.9074,-686.5282 1503.4875,-684.6111 1504.5662,-691.5275"/>
</g>
<!-- 27 -->
<g id="node18" class="node">
<title>27</title>
<path fill="none" stroke="#0000ff" d="M640.5,-311.5C640.5,-311.5 810.5,-311.5 810.5,-311.5 816.5,-311.5 822.5,-317.5 822.5,-323.5 822.5,-323.5 822.5,-335.5 822.5,-335.5 822.5,-341.5 816.5,-347.5 810.5,-347.5 810.5,-347.5 640.5,-347.5 640.5,-347.5 634.5,-347.5 628.5,-341.5 628.5,-335.5 628.5,-335.5 628.5,-323.5 628.5,-323.5 628.5,-317.5 634.5,-311.5 640.5,-311.5"/>
<text text-anchor="middle" x="725.5" y="-325.8" font-family="Times,serif" font-size="14.00" fill="#0000ff">TableToString___TableToString</text>
</g>
<!-- 63 -->
<g id="node38" class="node">
<title>63</title>
<path fill="none" stroke="#0000ff" d="M973.5,-258.5C973.5,-258.5 1067.5,-258.5 1067.5,-258.5 1073.5,-258.5 1079.5,-264.5 1079.5,-270.5 1079.5,-270.5 1079.5,-282.5 1079.5,-282.5 1079.5,-288.5 1073.5,-294.5 1067.5,-294.5 1067.5,-294.5 973.5,-294.5 973.5,-294.5 967.5,-294.5 961.5,-288.5 961.5,-282.5 961.5,-282.5 961.5,-270.5 961.5,-270.5 961.5,-264.5 967.5,-258.5 973.5,-258.5"/>
<text text-anchor="middle" x="1020.5" y="-272.8" font-family="Times,serif" font-size="14.00" fill="#0000ff">ToRow___ToRow</text>
</g>
<!-- 27&#45;&gt;63 -->
<g id="edge24" class="edge">
<title>27&#45;&gt;63</title>
<path fill="none" stroke="#000000" d="M822.5026,-312.0724C864.5873,-304.5114 912.9093,-295.8299 951.2803,-288.9361"/>
<polygon fill="#000000" stroke="#000000" points="952.0936,-292.3461 961.3171,-287.1329 950.8557,-285.4564 952.0936,-292.3461"/>
</g>
<!-- 27&#45;&gt;64 -->
<g id="edge25" class="edge">
<title>27&#45;&gt;64</title>
<path fill="none" stroke="#000000" d="M774.1133,-347.6274C802.8474,-359.1655 839.4662,-375.3297 870,-393.5 915.6066,-420.6399 963.327,-459.4788 992.494,-484.5953"/>
<polygon fill="#000000" stroke="#000000" points="990.3654,-487.3822 1000.2115,-491.2944 994.9541,-482.096 990.3654,-487.3822"/>
</g>
<!-- 69 -->
<g id="node42" class="node">
<title>69</title>
<path fill="none" stroke="#0000ff" d="M971.5,-313.5C971.5,-313.5 1069.5,-313.5 1069.5,-313.5 1075.5,-313.5 1081.5,-319.5 1081.5,-325.5 1081.5,-325.5 1081.5,-337.5 1081.5,-337.5 1081.5,-343.5 1075.5,-349.5 1069.5,-349.5 1069.5,-349.5 971.5,-349.5 971.5,-349.5 965.5,-349.5 959.5,-343.5 959.5,-337.5 959.5,-337.5 959.5,-325.5 959.5,-325.5 959.5,-319.5 965.5,-313.5 971.5,-313.5"/>
<text text-anchor="middle" x="1020.5" y="-327.8" font-family="Times,serif" font-size="14.00" fill="#0000ff">disp2str___disp2str</text>
</g>
<!-- 27&#45;&gt;69 -->
<g id="edge26" class="edge">
<title>27&#45;&gt;69</title>
<path fill="none" stroke="#000000" d="M822.5026,-330.1576C863.6407,-330.4365 910.7387,-330.7559 948.6762,-331.0131"/>
<polygon fill="#000000" stroke="#000000" points="949.0976,-334.5159 959.1211,-331.0839 949.1451,-327.5161 949.0976,-334.5159"/>
</g>
<!-- 30 -->
<g id="node19" class="node">
<title>30</title>
<path fill="none" stroke="#0000ff" d="M642.5,-839.5C642.5,-839.5 808.5,-839.5 808.5,-839.5 814.5,-839.5 820.5,-845.5 820.5,-851.5 820.5,-851.5 820.5,-863.5 820.5,-863.5 820.5,-869.5 814.5,-875.5 808.5,-875.5 808.5,-875.5 642.5,-875.5 642.5,-875.5 636.5,-875.5 630.5,-869.5 630.5,-863.5 630.5,-863.5 630.5,-851.5 630.5,-851.5 630.5,-845.5 636.5,-839.5 642.5,-839.5"/>
<text text-anchor="middle" x="725.5" y="-853.8" font-family="Times,serif" font-size="14.00" fill="#0000ff">max_cntvalue___max_cntvalue</text>
</g>
<!-- 30&#45;&gt;56 -->
<g id="edge28" class="edge">
<title>30&#45;&gt;56</title>
<path fill="none" stroke="#000000" d="M820.8707,-857.5C863.0568,-857.5 911.7719,-857.5 950.5179,-857.5"/>
<polygon fill="#000000" stroke="#000000" points="950.6545,-861.0001 960.6545,-857.5 950.6545,-854.0001 950.6545,-861.0001"/>
</g>
<!-- 59 -->
<g id="node36" class="node">
<title>59</title>
<path fill="none" stroke="#0000ff" d="M957,-894.5C957,-894.5 1084,-894.5 1084,-894.5 1090,-894.5 1096,-900.5 1096,-906.5 1096,-906.5 1096,-918.5 1096,-918.5 1096,-924.5 1090,-930.5 1084,-930.5 1084,-930.5 957,-930.5 957,-930.5 951,-930.5 945,-924.5 945,-918.5 945,-918.5 945,-906.5 945,-906.5 945,-900.5 951,-894.5 957,-894.5"/>
<text text-anchor="middle" x="1020.5" y="-908.8" font-family="Times,serif" font-size="14.00" fill="#0000ff">warnprintf___warnprintf</text>
</g>
<!-- 30&#45;&gt;59 -->
<g id="edge27" class="edge">
<title>30&#45;&gt;59</title>
<path fill="none" stroke="#000000" d="M820.8707,-875.281C857.4918,-882.1086 899.033,-889.8536 934.7018,-896.5037"/>
<polygon fill="#000000" stroke="#000000" points="934.1254,-899.9565 944.5975,-898.3487 935.4085,-893.0751 934.1254,-899.9565"/>
</g>
<!-- 32 -->
<g id="node20" class="node">
<title>32</title>
<path fill="none" stroke="#0000ff" d="M658.5,-491.5C658.5,-491.5 792.5,-491.5 792.5,-491.5 798.5,-491.5 804.5,-497.5 804.5,-503.5 804.5,-503.5 804.5,-515.5 804.5,-515.5 804.5,-521.5 798.5,-527.5 792.5,-527.5 792.5,-527.5 658.5,-527.5 658.5,-527.5 652.5,-527.5 646.5,-521.5 646.5,-515.5 646.5,-515.5 646.5,-503.5 646.5,-503.5 646.5,-497.5 652.5,-491.5 658.5,-491.5"/>
<text text-anchor="middle" x="725.5" y="-505.8" font-family="Times,serif" font-size="14.00" fill="#0000ff">strcell2mat___strcell2mat</text>
</g>
<!-- 32&#45;&gt;64 -->
<g id="edge29" class="edge">
<title>32&#45;&gt;64</title>
<path fill="none" stroke="#000000" d="M804.5546,-509.5C848.9532,-509.5 903.983,-509.5 947.3786,-509.5"/>
<polygon fill="#000000" stroke="#000000" points="947.5798,-513.0001 957.5798,-509.5 947.5797,-506.0001 947.5798,-513.0001"/>
</g>
<!-- 34 -->
<g id="node21" class="node">
<title>34</title>
<path fill="none" stroke="#0000ff" d="M359.5,-295.5C359.5,-295.5 477.5,-295.5 477.5,-295.5 483.5,-295.5 489.5,-301.5 489.5,-307.5 489.5,-307.5 489.5,-319.5 489.5,-319.5 489.5,-325.5 483.5,-331.5 477.5,-331.5 477.5,-331.5 359.5,-331.5 359.5,-331.5 353.5,-331.5 347.5,-325.5 347.5,-319.5 347.5,-319.5 347.5,-307.5 347.5,-307.5 347.5,-301.5 353.5,-295.5 359.5,-295.5"/>
<text text-anchor="middle" x="418.5" y="-309.8" font-family="Times,serif" font-size="14.00" fill="#0000ff">isvariable___isvariable</text>
</g>
<!-- 35&#45;&gt;35 -->
<g id="edge30" class="edge">
<title>35&#45;&gt;35</title>
<path fill="none" stroke="#000000" d="M969.8066,-619.5287C961.192,-629.1943 978.0898,-638 1020.5,-638 1047.0063,-638 1063.5469,-634.5603 1070.1217,-629.6207"/>
<polygon fill="#000000" stroke="#000000" points="1073.6178,-629.8424 1071.1934,-619.5287 1066.6569,-629.1032 1073.6178,-629.8424"/>
</g>
<!-- 36 -->
<g id="node23" class="node">
<title>36</title>
<path fill="none" stroke="#0000ff" d="M47.5,-839.5C47.5,-839.5 208.5,-839.5 208.5,-839.5 214.5,-839.5 220.5,-845.5 220.5,-851.5 220.5,-851.5 220.5,-863.5 220.5,-863.5 220.5,-869.5 214.5,-875.5 208.5,-875.5 208.5,-875.5 47.5,-875.5 47.5,-875.5 41.5,-875.5 35.5,-869.5 35.5,-863.5 35.5,-863.5 35.5,-851.5 35.5,-851.5 35.5,-845.5 41.5,-839.5 47.5,-839.5"/>
<text text-anchor="middle" x="128" y="-853.8" font-family="Times,serif" font-size="14.00" fill="#0000ff">ConvertToStr___ConvertToStr</text>
</g>
<!-- 36&#45;&gt;36 -->
<g id="edge31" class="edge">
<title>36&#45;&gt;36</title>
<path fill="none" stroke="#000000" d="M75.8685,-875.5287C67.0096,-885.1943 84.3867,-894 128,-894 155.2583,-894 172.2681,-890.5603 179.0295,-885.6207"/>
<polygon fill="#000000" stroke="#000000" points="182.5252,-885.8496 180.1315,-875.5287 175.5666,-885.0896 182.5252,-885.8496"/>
</g>
<!-- 38 -->
<g id="node24" class="node">
<title>38</title>
<path fill="none" stroke="#0000ff" d="M640.5,-436.5C640.5,-436.5 810.5,-436.5 810.5,-436.5 816.5,-436.5 822.5,-442.5 822.5,-448.5 822.5,-448.5 822.5,-460.5 822.5,-460.5 822.5,-466.5 816.5,-472.5 810.5,-472.5 810.5,-472.5 640.5,-472.5 640.5,-472.5 634.5,-472.5 628.5,-466.5 628.5,-460.5 628.5,-460.5 628.5,-448.5 628.5,-448.5 628.5,-442.5 634.5,-436.5 640.5,-436.5"/>
<text text-anchor="middle" x="725.5" y="-450.8" font-family="Times,serif" font-size="14.00" fill="#0000ff">cellcell2cellstr___cellcell2cellstr</text>
</g>
<!-- 38&#45;&gt;64 -->
<g id="edge32" class="edge">
<title>38&#45;&gt;64</title>
<path fill="none" stroke="#000000" d="M822.094,-472.5091C862.9708,-480.1301 909.7928,-488.8597 947.6832,-495.924"/>
<polygon fill="#000000" stroke="#000000" points="947.1443,-499.3838 957.6165,-497.776 948.4274,-492.5023 947.1443,-499.3838"/>
</g>
<!-- 39 -->
<g id="node25" class="node">
<title>39</title>
<path fill="none" stroke="#0000ff" d="M12,-912.5C12,-912.5 244,-912.5 244,-912.5 250,-912.5 256,-918.5 256,-924.5 256,-924.5 256,-936.5 256,-936.5 256,-942.5 250,-948.5 244,-948.5 244,-948.5 12,-948.5 12,-948.5 6,-948.5 0,-942.5 0,-936.5 0,-936.5 0,-924.5 0,-924.5 0,-918.5 6,-912.5 12,-912.5"/>
<text text-anchor="middle" x="128" y="-926.8" font-family="Times,serif" font-size="14.00" fill="#0000ff">MATLABsafename___MATLABsafename</text>
</g>
<!-- 39&#45;&gt;39 -->
<g id="edge33" class="edge">
<title>39&#45;&gt;39</title>
<path fill="none" stroke="#000000" d="M75.8685,-948.5287C67.0096,-958.1943 84.3867,-967 128,-967 155.2583,-967 172.2681,-963.5603 179.0295,-958.6207"/>
<polygon fill="#000000" stroke="#000000" points="182.5252,-958.8496 180.1315,-948.5287 175.5666,-958.0896 182.5252,-958.8496"/>
</g>
<!-- 41&#45;&gt;41 -->
<g id="edge34" class="edge">
<title>41&#45;&gt;41</title>
<path fill="none" stroke="#000000" d="M969.8066,-692.5287C961.192,-702.1943 978.0898,-711 1020.5,-711 1047.0063,-711 1063.5469,-707.5603 1070.1217,-702.6207"/>
<polygon fill="#000000" stroke="#000000" points="1073.6178,-702.8424 1071.1934,-692.5287 1066.6569,-702.1032 1073.6178,-702.8424"/>
</g>
<!-- 43 -->
<g id="node27" class="node">
<title>43</title>
<path fill="none" stroke="#0000ff" d="M346,-185.5C346,-185.5 491,-185.5 491,-185.5 497,-185.5 503,-191.5 503,-197.5 503,-197.5 503,-209.5 503,-209.5 503,-215.5 497,-221.5 491,-221.5 491,-221.5 346,-221.5 346,-221.5 340,-221.5 334,-215.5 334,-209.5 334,-209.5 334,-197.5 334,-197.5 334,-191.5 340,-185.5 346,-185.5"/>
<text text-anchor="middle" x="418.5" y="-199.8" font-family="Times,serif" font-size="14.00" fill="#0000ff">table2cellstr___table2cellstr</text>
</g>
<!-- 43&#45;&gt;27 -->
<g id="edge35" class="edge">
<title>43&#45;&gt;27</title>
<path fill="none" stroke="#000000" d="M503.1764,-217.9921C517.3444,-221.4305 531.7394,-225.5695 545,-230.5 598.1186,-250.2504 654.682,-283.5147 690.0447,-305.9753"/>
<polygon fill="#000000" stroke="#000000" points="688.2562,-308.9862 698.5634,-311.4381 692.0349,-303.0937 688.2562,-308.9862"/>
</g>
<!-- 44 -->
<g id="node28" class="node">
<title>44</title>
<path fill="none" stroke="#0000ff" d="M661.5,-894.5C661.5,-894.5 789.5,-894.5 789.5,-894.5 795.5,-894.5 801.5,-900.5 801.5,-906.5 801.5,-906.5 801.5,-918.5 801.5,-918.5 801.5,-924.5 795.5,-930.5 789.5,-930.5 789.5,-930.5 661.5,-930.5 661.5,-930.5 655.5,-930.5 649.5,-924.5 649.5,-918.5 649.5,-918.5 649.5,-906.5 649.5,-906.5 649.5,-900.5 655.5,-894.5 661.5,-894.5"/>
<text text-anchor="middle" x="725.5" y="-908.8" font-family="Times,serif" font-size="14.00" fill="#0000ff">warnassert___warnassert</text>
</g>
<!-- 44&#45;&gt;59 -->
<g id="edge36" class="edge">
<title>44&#45;&gt;59</title>
<path fill="none" stroke="#000000" d="M801.8535,-912.5C842.5436,-912.5 892.7326,-912.5 934.7585,-912.5"/>
<polygon fill="#000000" stroke="#000000" points="934.9776,-916.0001 944.9775,-912.5 934.9775,-909.0001 934.9776,-916.0001"/>
</g>
<!-- 46 -->
<g id="node29" class="node">
<title>46</title>
<path fill="none" stroke="#0000ff" d="M955,-37.5C955,-37.5 1086,-37.5 1086,-37.5 1092,-37.5 1098,-43.5 1098,-49.5 1098,-49.5 1098,-61.5 1098,-61.5 1098,-67.5 1092,-73.5 1086,-73.5 1086,-73.5 955,-73.5 955,-73.5 949,-73.5 943,-67.5 943,-61.5 943,-61.5 943,-49.5 943,-49.5 943,-43.5 949,-37.5 955,-37.5"/>
<text text-anchor="middle" x="1020.5" y="-51.8" font-family="Times,serif" font-size="14.00" fill="#0000ff">ToColumn___ToColumn</text>
</g>
<!-- 47 -->
<g id="node30" class="node">
<title>47</title>
<path fill="none" stroke="#0000ff" d="M304,-350.5C304,-350.5 533,-350.5 533,-350.5 539,-350.5 545,-356.5 545,-362.5 545,-362.5 545,-374.5 545,-374.5 545,-380.5 539,-386.5 533,-386.5 533,-386.5 304,-386.5 304,-386.5 298,-386.5 292,-380.5 292,-374.5 292,-374.5 292,-362.5 292,-362.5 292,-356.5 298,-350.5 304,-350.5"/>
<text text-anchor="middle" x="418.5" y="-364.8" font-family="Times,serif" font-size="14.00" fill="#0000ff">TableToCategorical___TableToCategorical</text>
</g>
<!-- 47&#45;&gt;63 -->
<g id="edge37" class="edge">
<title>47&#45;&gt;63</title>
<path fill="none" stroke="#000000" d="M523.9394,-350.4475C531.2684,-347.603 538.3692,-344.3107 545,-340.5 565.4522,-328.7462 559.6688,-311.571 581,-301.5 701.2811,-244.7124 861.1524,-253.5843 951.1888,-265.0852"/>
<polygon fill="#000000" stroke="#000000" points="950.908,-268.5786 961.2812,-266.4231 951.8279,-261.6393 950.908,-268.5786"/>
</g>
<!-- 48 -->
<g id="node31" class="node">
<title>48</title>
<path fill="none" stroke="#0000ff" d="M675,-146.5C675,-146.5 776,-146.5 776,-146.5 782,-146.5 788,-152.5 788,-158.5 788,-158.5 788,-170.5 788,-170.5 788,-176.5 782,-182.5 776,-182.5 776,-182.5 675,-182.5 675,-182.5 669,-182.5 663,-176.5 663,-170.5 663,-170.5 663,-158.5 663,-158.5 663,-152.5 669,-146.5 675,-146.5"/>
<text text-anchor="middle" x="725.5" y="-160.8" font-family="Times,serif" font-size="14.00" fill="#0000ff">cell2csv___cell2csv</text>
</g>
<!-- 49 -->
<g id="node32" class="node">
<title>49</title>
<path fill="none" stroke="#0000ff" d="M342.5,-460.5C342.5,-460.5 494.5,-460.5 494.5,-460.5 500.5,-460.5 506.5,-466.5 506.5,-472.5 506.5,-472.5 506.5,-484.5 506.5,-484.5 506.5,-490.5 500.5,-496.5 494.5,-496.5 494.5,-496.5 342.5,-496.5 342.5,-496.5 336.5,-496.5 330.5,-490.5 330.5,-484.5 330.5,-484.5 330.5,-472.5 330.5,-472.5 330.5,-466.5 336.5,-460.5 342.5,-460.5"/>
<text text-anchor="middle" x="418.5" y="-474.8" font-family="Times,serif" font-size="14.00" fill="#0000ff">get_newaxes___get_newaxes</text>
</g>
<!-- 51 -->
<g id="node33" class="node">
<title>51</title>
<path fill="none" stroke="#0000ff" d="M370,-130.5C370,-130.5 467,-130.5 467,-130.5 473,-130.5 479,-136.5 479,-142.5 479,-142.5 479,-154.5 479,-154.5 479,-160.5 473,-166.5 467,-166.5 467,-166.5 370,-166.5 370,-166.5 364,-166.5 358,-160.5 358,-154.5 358,-154.5 358,-142.5 358,-142.5 358,-136.5 364,-130.5 370,-130.5"/>
<text text-anchor="middle" x="418.5" y="-144.8" font-family="Times,serif" font-size="14.00" fill="#0000ff">cell2tsv___cell2tsv</text>
</g>
<!-- 51&#45;&gt;48 -->
<g id="edge38" class="edge">
<title>51&#45;&gt;48</title>
<path fill="none" stroke="#000000" d="M479.1533,-151.6611C529.0593,-154.262 599.9387,-157.9561 652.8658,-160.7145"/>
<polygon fill="#000000" stroke="#000000" points="652.6963,-164.2103 662.865,-161.2356 653.0607,-157.2198 652.6963,-164.2103"/>
</g>
<!-- 58 -->
<g id="node35" class="node">
<title>58</title>
<path fill="none" stroke="#0000ff" d="M54,-985.5C54,-985.5 202,-985.5 202,-985.5 208,-985.5 214,-991.5 214,-997.5 214,-997.5 214,-1009.5 214,-1009.5 214,-1015.5 208,-1021.5 202,-1021.5 202,-1021.5 54,-1021.5 54,-1021.5 48,-1021.5 42,-1015.5 42,-1009.5 42,-1009.5 42,-997.5 42,-997.5 42,-991.5 48,-985.5 54,-985.5"/>
<text text-anchor="middle" x="128" y="-999.8" font-family="Times,serif" font-size="14.00" fill="#0000ff">ReducName___ReducName</text>
</g>
<!-- 58&#45;&gt;58 -->
<g id="edge39" class="edge">
<title>58&#45;&gt;58</title>
<path fill="none" stroke="#000000" d="M75.8685,-1021.5287C67.0096,-1031.1943 84.3867,-1040 128,-1040 155.2583,-1040 172.2681,-1036.5603 179.0295,-1031.6207"/>
<polygon fill="#000000" stroke="#000000" points="182.5252,-1031.8496 180.1315,-1021.5287 175.5666,-1031.0896 182.5252,-1031.8496"/>
</g>
<!-- 62 -->
<g id="node37" class="node">
<title>62</title>
<path fill="none" stroke="#0000ff" d="M341,-405.5C341,-405.5 496,-405.5 496,-405.5 502,-405.5 508,-411.5 508,-417.5 508,-417.5 508,-429.5 508,-429.5 508,-435.5 502,-441.5 496,-441.5 496,-441.5 341,-441.5 341,-441.5 335,-441.5 329,-435.5 329,-429.5 329,-429.5 329,-417.5 329,-417.5 329,-411.5 335,-405.5 341,-405.5"/>
<text text-anchor="middle" x="418.5" y="-419.8" font-family="Times,serif" font-size="14.00" fill="#0000ff">AnyToString___AnyToString</text>
</g>
<!-- 62&#45;&gt;64 -->
<g id="edge40" class="edge">
<title>62&#45;&gt;64</title>
<path fill="none" stroke="#000000" d="M508.0042,-411.3098C600.3343,-401.6796 747.6982,-394.5775 870,-426.5 914.0873,-438.0074 959.1279,-465.3186 988.2979,-485.4854"/>
<polygon fill="#000000" stroke="#000000" points="986.6313,-488.5926 996.8225,-491.4893 990.6621,-482.8695 986.6313,-488.5926"/>
</g>
<!-- 65 -->
<g id="node40" class="node">
<title>65</title>
<path fill="none" stroke="#0000ff" d="M373,-240.5C373,-240.5 464,-240.5 464,-240.5 470,-240.5 476,-246.5 476,-252.5 476,-252.5 476,-264.5 476,-264.5 476,-270.5 470,-276.5 464,-276.5 464,-276.5 373,-276.5 373,-276.5 367,-276.5 361,-270.5 361,-264.5 361,-264.5 361,-252.5 361,-252.5 361,-246.5 367,-240.5 373,-240.5"/>
<text text-anchor="middle" x="418.5" y="-254.8" font-family="Times,serif" font-size="14.00" fill="#0000ff">eqtable___eqtable</text>
</g>
<!-- 67 -->
<g id="node41" class="node">
<title>67</title>
<path fill="none" stroke="#0000ff" d="M73,-158.5C73,-158.5 183,-158.5 183,-158.5 189,-158.5 195,-164.5 195,-170.5 195,-170.5 195,-182.5 195,-182.5 195,-188.5 189,-194.5 183,-194.5 183,-194.5 73,-194.5 73,-194.5 67,-194.5 61,-188.5 61,-182.5 61,-182.5 61,-170.5 61,-170.5 61,-164.5 67,-158.5 73,-158.5"/>
<text text-anchor="middle" x="128" y="-172.8" font-family="Times,serif" font-size="14.00" fill="#0000ff">table2tsv___table2tsv</text>
</g>
<!-- 67&#45;&gt;43 -->
<g id="edge42" class="edge">
<title>67&#45;&gt;43</title>
<path fill="none" stroke="#000000" d="M195.0113,-182.7282C233.2498,-186.2823 281.7998,-190.7946 323.8729,-194.7051"/>
<polygon fill="#000000" stroke="#000000" points="323.5772,-198.1926 333.8582,-195.6331 324.225,-191.2226 323.5772,-198.1926"/>
</g>
<!-- 67&#45;&gt;51 -->
<g id="edge41" class="edge">
<title>67&#45;&gt;51</title>
<path fill="none" stroke="#000000" d="M195.0113,-170.0411C240.7508,-165.6325 301.2441,-159.8018 347.7581,-155.3185"/>
<polygon fill="#000000" stroke="#000000" points="348.1419,-158.7978 357.7599,-154.3545 347.4702,-151.8301 348.1419,-158.7978"/>
</g>
<!-- 71 -->
<g id="node43" class="node">
<title>71</title>
<path fill="none" stroke="#0000ff" d="M690.5,-.5C690.5,-.5 760.5,-.5 760.5,-.5 766.5,-.5 772.5,-6.5 772.5,-12.5 772.5,-12.5 772.5,-24.5 772.5,-24.5 772.5,-30.5 766.5,-36.5 760.5,-36.5 760.5,-36.5 690.5,-36.5 690.5,-36.5 684.5,-36.5 678.5,-30.5 678.5,-24.5 678.5,-24.5 678.5,-12.5 678.5,-12.5 678.5,-6.5 684.5,-.5 690.5,-.5"/>
<text text-anchor="middle" x="725.5" y="-14.8" font-family="Times,serif" font-size="14.00" fill="#0000ff">SEM___SEM</text>
</g>
<!-- 71&#45;&gt;46 -->
<g id="edge44" class="edge">
<title>71&#45;&gt;46</title>
<path fill="none" stroke="#000000" d="M772.5698,-24.4037C815.5886,-29.7993 880.3126,-37.9172 932.8426,-44.5057"/>
<polygon fill="#000000" stroke="#000000" points="932.4803,-47.9876 942.8382,-45.7594 933.3515,-41.042 932.4803,-47.9876"/>
</g>
<!-- 71&#45;&gt;71 -->
<g id="edge43" class="edge">
<title>71&#45;&gt;71</title>
<path fill="none" stroke="#000000" d="M678.4533,-32.1669C658.9994,-43.3676 674.6816,-55 725.5,-55 765.9959,-55 784.18,-47.6133 780.0523,-38.9447"/>
<polygon fill="#000000" stroke="#000000" points="782.3142,-36.2714 772.5467,-32.1669 777.6227,-41.4666 782.3142,-36.2714"/>
</g>
<!-- 73 -->
<g id="node45" class="node">
<title>73</title>
<path fill="none" stroke="#0000ff" d="M657,-73.5C657,-73.5 794,-73.5 794,-73.5 800,-73.5 806,-79.5 806,-85.5 806,-85.5 806,-97.5 806,-97.5 806,-103.5 800,-109.5 794,-109.5 794,-109.5 657,-109.5 657,-109.5 651,-109.5 645,-103.5 645,-97.5 645,-97.5 645,-85.5 645,-85.5 645,-79.5 651,-73.5 657,-73.5"/>
<text text-anchor="middle" x="725.5" y="-87.8" font-family="Times,serif" font-size="14.00" fill="#0000ff">ICcurve_fit___ICcurve_fit</text>
</g>
<!-- 73&#45;&gt;46 -->
<g id="edge46" class="edge">
<title>73&#45;&gt;46</title>
<path fill="none" stroke="#000000" d="M806.11,-81.6628C845.348,-76.8745 892.5982,-71.1084 932.7432,-66.2093"/>
<polygon fill="#000000" stroke="#000000" points="933.2849,-69.6693 942.7873,-64.9836 932.4369,-62.7208 933.2849,-69.6693"/>
</g>
<!-- 73&#45;&gt;63 -->
<g id="edge45" class="edge">
<title>73&#45;&gt;63</title>
<path fill="none" stroke="#000000" d="M805.7993,-109.562C827.4677,-116.2622 850.3396,-125.0969 870,-136.5 922.7066,-167.0698 972.0547,-219.1392 999.0784,-250.4307"/>
<polygon fill="#000000" stroke="#000000" points="996.6257,-252.9487 1005.7747,-258.2915 1001.9544,-248.4094 996.6257,-252.9487"/>
</g>
<!-- 73&#45;&gt;73 -->
<g id="edge47" class="edge">
<title>73&#45;&gt;73</title>
<path fill="none" stroke="#000000" d="M672.6494,-109.5287C663.6683,-119.1943 681.2852,-128 725.5,-128 753.1343,-128 770.3787,-124.5603 777.2333,-119.6207"/>
<polygon fill="#000000" stroke="#000000" points="780.7289,-119.8531 778.3506,-109.5287 773.7714,-119.0828 780.7289,-119.8531"/>
</g>
<!-- 75 -->
<g id="node46" class="node">
<title>75</title>
<path fill="none" stroke="#0000ff" d="M67,-1058.5C67,-1058.5 189,-1058.5 189,-1058.5 195,-1058.5 201,-1064.5 201,-1070.5 201,-1070.5 201,-1082.5 201,-1082.5 201,-1088.5 195,-1094.5 189,-1094.5 189,-1094.5 67,-1094.5 67,-1094.5 61,-1094.5 55,-1088.5 55,-1082.5 55,-1082.5 55,-1070.5 55,-1070.5 55,-1064.5 61,-1058.5 67,-1058.5"/>
<text text-anchor="middle" x="128" y="-1072.8" font-family="Times,serif" font-size="14.00" fill="#0000ff">plot_vbox___plot_vbox</text>
</g>
<!-- 75&#45;&gt;75 -->
<g id="edge48" class="edge">
<title>75&#45;&gt;75</title>
<path fill="none" stroke="#000000" d="M75.8685,-1094.5287C67.0096,-1104.1943 84.3867,-1113 128,-1113 155.2583,-1113 172.2681,-1109.5603 179.0295,-1104.6207"/>
<polygon fill="#000000" stroke="#000000" points="182.5252,-1104.8496 180.1315,-1094.5287 175.5666,-1104.0896 182.5252,-1104.8496"/>
</g>
<!-- 76 -->
<g id="node47" class="node">
<title>76</title>
<path fill="none" stroke="#0000ff" d="M37.5,-295.5C37.5,-295.5 218.5,-295.5 218.5,-295.5 224.5,-295.5 230.5,-301.5 230.5,-307.5 230.5,-307.5 230.5,-319.5 230.5,-319.5 230.5,-325.5 224.5,-331.5 218.5,-331.5 218.5,-331.5 37.5,-331.5 37.5,-331.5 31.5,-331.5 25.5,-325.5 25.5,-319.5 25.5,-319.5 25.5,-307.5 25.5,-307.5 25.5,-301.5 31.5,-295.5 37.5,-295.5"/>
<text text-anchor="middle" x="128" y="-309.8" font-family="Times,serif" font-size="14.00" fill="#0000ff">plot_multidims___plot_multidims</text>
</g>
<!-- 76&#45;&gt;34 -->
<g id="edge50" class="edge">
<title>76&#45;&gt;34</title>
<path fill="none" stroke="#000000" d="M230.8282,-313.5C265.7366,-313.5 304.2283,-313.5 337.2185,-313.5"/>
<polygon fill="#000000" stroke="#000000" points="337.2701,-317.0001 347.2701,-313.5 337.2701,-310.0001 337.2701,-317.0001"/>
</g>
<!-- 76&#45;&gt;43 -->
<g id="edge52" class="edge">
<title>76&#45;&gt;43</title>
<path fill="none" stroke="#000000" d="M157.7865,-295.4533C189.8765,-276.7308 242.9524,-247.8168 292,-230.5 302.2138,-226.8939 313.0696,-223.6882 323.9628,-220.86"/>
<polygon fill="#000000" stroke="#000000" points="325.1033,-224.1829 333.9599,-218.3681 323.4102,-217.3907 325.1033,-224.1829"/>
</g>
<!-- 76&#45;&gt;47 -->
<g id="edge49" class="edge">
<title>76&#45;&gt;47</title>
<path fill="none" stroke="#000000" d="M223.1206,-331.5091C251.962,-336.9696 283.8089,-342.9991 313.2728,-348.5775"/>
<polygon fill="#000000" stroke="#000000" points="312.6892,-352.0291 323.1657,-350.4505 313.9914,-345.1513 312.6892,-352.0291"/>
</g>
<!-- 76&#45;&gt;49 -->
<g id="edge51" class="edge">
<title>76&#45;&gt;49</title>
<path fill="none" stroke="#000000" d="M196.8809,-331.5821C217.8923,-339.7871 239.7171,-351.3796 256,-367.5 284.5744,-395.7894 260.9808,-424.9148 292,-450.5 300.4362,-457.4583 310.2305,-462.7836 320.5629,-466.8451"/>
<polygon fill="#000000" stroke="#000000" points="319.5847,-470.2112 330.1795,-470.2304 321.9091,-463.6084 319.5847,-470.2112"/>
</g>
<!-- 76&#45;&gt;62 -->
<g id="edge54" class="edge">
<title>76&#45;&gt;62</title>
<path fill="none" stroke="#000000" d="M179.317,-331.5929C203.3182,-340.9394 231.8624,-353.3531 256,-367.5 273.4876,-377.7494 273.656,-386.8766 292,-395.5 300.5361,-399.5128 309.6699,-402.9622 318.9766,-405.9252"/>
<polygon fill="#000000" stroke="#000000" points="318.1363,-409.327 328.7199,-408.8401 320.1426,-402.6207 318.1363,-409.327"/>
</g>
<!-- 76&#45;&gt;65 -->
<g id="edge53" class="edge">
<title>76&#45;&gt;65</title>
<path fill="none" stroke="#000000" d="M223.1206,-295.4909C264.8927,-287.5823 312.9697,-278.4799 350.9797,-271.2835"/>
<polygon fill="#000000" stroke="#000000" points="351.7424,-274.7014 360.9167,-269.4022 350.4401,-267.8236 351.7424,-274.7014"/>
</g>
<!-- 80 -->
<g id="node48" class="node">
<title>80</title>
<path fill="none" stroke="#0000ff" d="M55.5,-460.5C55.5,-460.5 200.5,-460.5 200.5,-460.5 206.5,-460.5 212.5,-466.5 212.5,-472.5 212.5,-472.5 212.5,-484.5 212.5,-484.5 212.5,-490.5 206.5,-496.5 200.5,-496.5 200.5,-496.5 55.5,-496.5 55.5,-496.5 49.5,-496.5 43.5,-490.5 43.5,-484.5 43.5,-484.5 43.5,-472.5 43.5,-472.5 43.5,-466.5 49.5,-460.5 55.5,-460.5"/>
<text text-anchor="middle" x="128" y="-474.8" font-family="Times,serif" font-size="14.00" fill="#0000ff">get_subaxes___get_subaxes</text>
</g>
<!-- 80&#45;&gt;49 -->
<g id="edge55" class="edge">
<title>80&#45;&gt;49</title>
<path fill="none" stroke="#000000" d="M212.8056,-478.5C246.4152,-478.5 285.28,-478.5 320.1164,-478.5"/>
<polygon fill="#000000" stroke="#000000" points="320.3062,-482.0001 330.3061,-478.5 320.3061,-475.0001 320.3062,-482.0001"/>
</g>
<!-- 81 -->
<g id="node49" class="node">
<title>81</title>
<path fill="none" stroke="#0000ff" d="M13.5,-377.5C13.5,-377.5 242.5,-377.5 242.5,-377.5 248.5,-377.5 254.5,-383.5 254.5,-389.5 254.5,-389.5 254.5,-401.5 254.5,-401.5 254.5,-407.5 248.5,-413.5 242.5,-413.5 242.5,-413.5 13.5,-413.5 13.5,-413.5 7.5,-413.5 1.5,-407.5 1.5,-401.5 1.5,-401.5 1.5,-389.5 1.5,-389.5 1.5,-383.5 7.5,-377.5 13.5,-377.5"/>
<text text-anchor="middle" x="128" y="-391.8" font-family="Times,serif" font-size="14.00" fill="#0000ff">plot_fits_multidims___plot_fits_multidims</text>
</g>
<!-- 81&#45;&gt;34 -->
<g id="edge56" class="edge">
<title>81&#45;&gt;34</title>
<path fill="none" stroke="#000000" d="M177.0711,-377.4207C209.4259,-365.9039 252.8943,-351.1937 292,-340.5 306.5705,-336.5156 322.2177,-332.7609 337.3698,-329.3904"/>
<polygon fill="#000000" stroke="#000000" points="338.2176,-332.7878 347.2392,-327.2324 336.7223,-325.9493 338.2176,-332.7878"/>
</g>
<!-- 81&#45;&gt;47 -->
<g id="edge57" class="edge">
<title>81&#45;&gt;47</title>
<path fill="none" stroke="#000000" d="M254.5725,-383.736C263.5707,-382.8996 272.6663,-382.0543 281.7178,-381.213"/>
<polygon fill="#000000" stroke="#000000" points="282.2779,-384.6761 291.911,-380.2656 281.63,-377.7061 282.2779,-384.6761"/>
</g>
<!-- 81&#45;&gt;49 -->
<g id="edge58" class="edge">
<title>81&#45;&gt;49</title>
<path fill="none" stroke="#000000" d="M177.4584,-413.6081C209.7863,-425.0655 253.0796,-439.6989 292,-450.5 301.4283,-453.1165 311.3049,-455.6523 321.2053,-458.0592"/>
<polygon fill="#000000" stroke="#000000" points="320.5584,-461.503 331.0979,-460.4214 322.1842,-454.6945 320.5584,-461.503"/>
</g>
<!-- 81&#45;&gt;62 -->
<g id="edge59" class="edge">
<title>81&#45;&gt;62</title>
<path fill="none" stroke="#000000" d="M254.5725,-407.6998C275.9901,-409.7641 297.9587,-411.8816 318.5736,-413.8685"/>
<polygon fill="#000000" stroke="#000000" points="318.2868,-417.357 328.5765,-414.8327 318.9585,-410.3893 318.2868,-417.357"/>
</g>
<!-- 82 -->
<g id="node50" class="node">
<title>82</title>
<path fill="none" stroke="#0000ff" d="M71.5,-1314.5C71.5,-1314.5 184.5,-1314.5 184.5,-1314.5 190.5,-1314.5 196.5,-1320.5 196.5,-1326.5 196.5,-1326.5 196.5,-1338.5 196.5,-1338.5 196.5,-1344.5 190.5,-1350.5 184.5,-1350.5 184.5,-1350.5 71.5,-1350.5 71.5,-1350.5 65.5,-1350.5 59.5,-1344.5 59.5,-1338.5 59.5,-1338.5 59.5,-1326.5 59.5,-1326.5 59.5,-1320.5 65.5,-1314.5 71.5,-1314.5"/>
<text text-anchor="middle" x="128" y="-1328.8" font-family="Times,serif" font-size="14.00" fill="#0000ff">stitchmat___stitchmat</text>
</g>
<!-- 89 -->
<g id="node55" class="node">
<title>89</title>
<path fill="none" stroke="#0000ff" d="M678.5,-1233.5C678.5,-1233.5 772.5,-1233.5 772.5,-1233.5 778.5,-1233.5 784.5,-1239.5 784.5,-1245.5 784.5,-1245.5 784.5,-1257.5 784.5,-1257.5 784.5,-1263.5 778.5,-1269.5 772.5,-1269.5 772.5,-1269.5 678.5,-1269.5 678.5,-1269.5 672.5,-1269.5 666.5,-1263.5 666.5,-1257.5 666.5,-1257.5 666.5,-1245.5 666.5,-1245.5 666.5,-1239.5 672.5,-1233.5 678.5,-1233.5"/>
<text text-anchor="middle" x="725.5" y="-1247.8" font-family="Times,serif" font-size="14.00" fill="#0000ff">getshift___getshift</text>
</g>
<!-- 82&#45;&gt;89 -->
<g id="edge61" class="edge">
<title>82&#45;&gt;89</title>
<path fill="none" stroke="#000000" d="M196.5873,-1335.3116C279.7979,-1337.365 423.9748,-1336.5495 545,-1313.5 589.9251,-1304.9439 638.8761,-1287.5913 674.4527,-1273.4147"/>
<polygon fill="#000000" stroke="#000000" points="676.1569,-1276.5012 684.118,-1269.5104 673.535,-1270.0107 676.1569,-1276.5012"/>
</g>
<!-- 93 -->
<g id="node59" class="node">
<title>93</title>
<path fill="none" stroke="#0000ff" d="M359,-1267.5C359,-1267.5 478,-1267.5 478,-1267.5 484,-1267.5 490,-1273.5 490,-1279.5 490,-1279.5 490,-1291.5 490,-1291.5 490,-1297.5 484,-1303.5 478,-1303.5 478,-1303.5 359,-1303.5 359,-1303.5 353,-1303.5 347,-1297.5 347,-1291.5 347,-1291.5 347,-1279.5 347,-1279.5 347,-1273.5 353,-1267.5 359,-1267.5"/>
<text text-anchor="middle" x="418.5" y="-1281.8" font-family="Times,serif" font-size="14.00" fill="#0000ff">wellname___wellname</text>
</g>
<!-- 82&#45;&gt;93 -->
<g id="edge60" class="edge">
<title>82&#45;&gt;93</title>
<path fill="none" stroke="#000000" d="M196.8444,-1321.3617C238.7942,-1314.5746 292.6306,-1305.8644 336.7408,-1298.7278"/>
<polygon fill="#000000" stroke="#000000" points="337.5488,-1302.1427 346.8614,-1297.0904 336.4307,-1295.2326 337.5488,-1302.1427"/>
</g>
<!-- 83 -->
<g id="node51" class="node">
<title>83</title>
<path fill="none" stroke="#0000ff" d="M76,-1186.5C76,-1186.5 180,-1186.5 180,-1186.5 186,-1186.5 192,-1192.5 192,-1198.5 192,-1198.5 192,-1210.5 192,-1210.5 192,-1216.5 186,-1222.5 180,-1222.5 180,-1222.5 76,-1222.5 76,-1222.5 70,-1222.5 64,-1216.5 64,-1210.5 64,-1210.5 64,-1198.5 64,-1198.5 64,-1192.5 70,-1186.5 76,-1186.5"/>
<text text-anchor="middle" x="128" y="-1200.8" font-family="Times,serif" font-size="14.00" fill="#0000ff">r0merge___r0merge</text>
</g>
<!-- 85 -->
<g id="node52" class="node">
<title>85</title>
<path fill="none" stroke="#0000ff" d="M676.5,-1178.5C676.5,-1178.5 774.5,-1178.5 774.5,-1178.5 780.5,-1178.5 786.5,-1184.5 786.5,-1190.5 786.5,-1190.5 786.5,-1202.5 786.5,-1202.5 786.5,-1208.5 780.5,-1214.5 774.5,-1214.5 774.5,-1214.5 676.5,-1214.5 676.5,-1214.5 670.5,-1214.5 664.5,-1208.5 664.5,-1202.5 664.5,-1202.5 664.5,-1190.5 664.5,-1190.5 664.5,-1184.5 670.5,-1178.5 676.5,-1178.5"/>
<text text-anchor="middle" x="725.5" y="-1192.8" font-family="Times,serif" font-size="14.00" fill="#0000ff">bgmesh___bgmesh</text>
</g>
<!-- 83&#45;&gt;85 -->
<g id="edge63" class="edge">
<title>83&#45;&gt;85</title>
<path fill="none" stroke="#000000" d="M192.2266,-1203.6401C304.722,-1202.1338 536.5888,-1199.0294 654.0088,-1197.4572"/>
<polygon fill="#000000" stroke="#000000" points="654.369,-1200.9528 664.3212,-1197.3191 654.2752,-1193.9534 654.369,-1200.9528"/>
</g>
<!-- 83&#45;&gt;89 -->
<g id="edge64" class="edge">
<title>83&#45;&gt;89</title>
<path fill="none" stroke="#000000" d="M192.2266,-1209.5521C305.3071,-1218.4472 539.0042,-1236.83 655.8318,-1246.0198"/>
<polygon fill="#000000" stroke="#000000" points="655.8401,-1249.5312 666.0838,-1246.8263 656.3891,-1242.5528 655.8401,-1249.5312"/>
</g>
<!-- 83&#45;&gt;93 -->
<g id="edge62" class="edge">
<title>83&#45;&gt;93</title>
<path fill="none" stroke="#000000" d="M188.2417,-1222.5942C219.1915,-1231.7727 257.5464,-1242.9663 292,-1252.5 306.8039,-1256.5964 322.6213,-1260.8332 337.8816,-1264.8499"/>
<polygon fill="#000000" stroke="#000000" points="337.2525,-1268.3031 347.8132,-1267.4539 339.0279,-1261.532 337.2525,-1268.3031"/>
</g>
<!-- 96 -->
<g id="node62" class="node">
<title>96</title>
<path fill="none" stroke="#0000ff" d="M375.5,-1080.5C375.5,-1080.5 461.5,-1080.5 461.5,-1080.5 467.5,-1080.5 473.5,-1086.5 473.5,-1092.5 473.5,-1092.5 473.5,-1104.5 473.5,-1104.5 473.5,-1110.5 467.5,-1116.5 461.5,-1116.5 461.5,-1116.5 375.5,-1116.5 375.5,-1116.5 369.5,-1116.5 363.5,-1110.5 363.5,-1104.5 363.5,-1104.5 363.5,-1092.5 363.5,-1092.5 363.5,-1086.5 369.5,-1080.5 375.5,-1080.5"/>
<text text-anchor="middle" x="418.5" y="-1094.8" font-family="Times,serif" font-size="14.00" fill="#0000ff">extract___extract</text>
</g>
<!-- 83&#45;&gt;96 -->
<g id="edge65" class="edge">
<title>83&#45;&gt;96</title>
<path fill="none" stroke="#000000" d="M192.2488,-1200.533C213.8891,-1196.8026 237.2742,-1189.9451 256,-1177.5 279.4105,-1161.9414 268.6081,-1141.0866 292,-1125.5 309.9871,-1113.5147 332.3305,-1106.7252 353.212,-1102.9186"/>
<polygon fill="#000000" stroke="#000000" points="354.009,-1106.3351 363.3199,-1101.2798 352.8886,-1099.4254 354.009,-1106.3351"/>
</g>
<!-- 100 -->
<g id="node65" class="node">
<title>100</title>
<path fill="none" stroke="#0000ff" d="M359.5,-1135.5C359.5,-1135.5 477.5,-1135.5 477.5,-1135.5 483.5,-1135.5 489.5,-1141.5 489.5,-1147.5 489.5,-1147.5 489.5,-1159.5 489.5,-1159.5 489.5,-1165.5 483.5,-1171.5 477.5,-1171.5 477.5,-1171.5 359.5,-1171.5 359.5,-1171.5 353.5,-1171.5 347.5,-1165.5 347.5,-1159.5 347.5,-1159.5 347.5,-1147.5 347.5,-1147.5 347.5,-1141.5 353.5,-1135.5 359.5,-1135.5"/>
<text text-anchor="middle" x="418.5" y="-1149.8" font-family="Times,serif" font-size="14.00" fill="#0000ff">trackbidir___trackbidir</text>
</g>
<!-- 83&#45;&gt;100 -->
<g id="edge66" class="edge">
<title>83&#45;&gt;100</title>
<path fill="none" stroke="#000000" d="M192.1111,-1193.2447C234.9193,-1185.7293 291.5719,-1175.7834 337.4947,-1167.7212"/>
<polygon fill="#000000" stroke="#000000" points="338.1763,-1171.1552 347.4205,-1165.9787 336.9659,-1164.2606 338.1763,-1171.1552"/>
</g>
<!-- 87 -->
<g id="node53" class="node">
<title>87</title>
<path fill="none" stroke="#0000ff" d="M63,-1259.5C63,-1259.5 193,-1259.5 193,-1259.5 199,-1259.5 205,-1265.5 205,-1271.5 205,-1271.5 205,-1283.5 205,-1283.5 205,-1289.5 199,-1295.5 193,-1295.5 193,-1295.5 63,-1295.5 63,-1295.5 57,-1295.5 51,-1289.5 51,-1283.5 51,-1283.5 51,-1271.5 51,-1271.5 51,-1265.5 57,-1259.5 63,-1259.5"/>
<text text-anchor="middle" x="128" y="-1273.8" font-family="Times,serif" font-size="14.00" fill="#0000ff">mergesites___mergesites</text>
</g>
<!-- 87&#45;&gt;93 -->
<g id="edge67" class="edge">
<title>87&#45;&gt;93</title>
<path fill="none" stroke="#000000" d="M205.086,-1279.6228C245.6157,-1280.739 295.3027,-1282.1073 336.5333,-1283.2427"/>
<polygon fill="#000000" stroke="#000000" points="336.457,-1286.7419 346.5496,-1283.5186 336.6498,-1279.7445 336.457,-1286.7419"/>
</g>
<!-- 88 -->
<g id="node54" class="node">
<title>88</title>
<path fill="none" stroke="#0000ff" d="M82.5,-1131.5C82.5,-1131.5 173.5,-1131.5 173.5,-1131.5 179.5,-1131.5 185.5,-1137.5 185.5,-1143.5 185.5,-1143.5 185.5,-1155.5 185.5,-1155.5 185.5,-1161.5 179.5,-1167.5 173.5,-1167.5 173.5,-1167.5 82.5,-1167.5 82.5,-1167.5 76.5,-1167.5 70.5,-1161.5 70.5,-1155.5 70.5,-1155.5 70.5,-1143.5 70.5,-1143.5 70.5,-1137.5 76.5,-1131.5 82.5,-1131.5"/>
<text text-anchor="middle" x="128" y="-1145.8" font-family="Times,serif" font-size="14.00" fill="#0000ff">icrprun___icrprun</text>
</g>
<!-- 88&#45;&gt;93 -->
<g id="edge69" class="edge">
<title>88&#45;&gt;93</title>
<path fill="none" stroke="#000000" d="M185.7918,-1157.4412C208.282,-1161.7311 233.9047,-1168.133 256,-1177.5 306.3873,-1198.861 357.8978,-1236.2755 389.0449,-1260.9727"/>
<polygon fill="#000000" stroke="#000000" points="386.9017,-1263.7404 396.8918,-1267.2685 391.2823,-1258.2805 386.9017,-1263.7404"/>
</g>
<!-- 88&#45;&gt;96 -->
<g id="edge68" class="edge">
<title>88&#45;&gt;96</title>
<path fill="none" stroke="#000000" d="M185.7408,-1139.3631C234.0387,-1130.8839 302.9172,-1118.7916 353.2128,-1109.9618"/>
<polygon fill="#000000" stroke="#000000" points="354.0864,-1113.362 363.3306,-1108.1855 352.876,-1106.4675 354.0864,-1113.362"/>
</g>
<!-- 88&#45;&gt;100 -->
<g id="edge70" class="edge">
<title>88&#45;&gt;100</title>
<path fill="none" stroke="#000000" d="M185.7408,-1150.2951C229.0719,-1150.8917 288.9681,-1151.7164 337.1489,-1152.3798"/>
<polygon fill="#000000" stroke="#000000" points="337.1948,-1155.8807 347.2421,-1152.5188 337.2913,-1148.8814 337.1948,-1155.8807"/>
</g>
<!-- 90 -->
<g id="node56" class="node">
<title>90</title>
<path fill="none" stroke="#0000ff" d="M963,-1315.5C963,-1315.5 1078,-1315.5 1078,-1315.5 1084,-1315.5 1090,-1321.5 1090,-1327.5 1090,-1327.5 1090,-1339.5 1090,-1339.5 1090,-1345.5 1084,-1351.5 1078,-1351.5 1078,-1351.5 963,-1351.5 963,-1351.5 957,-1351.5 951,-1345.5 951,-1339.5 951,-1339.5 951,-1327.5 951,-1327.5 951,-1321.5 957,-1315.5 963,-1315.5"/>
<text text-anchor="middle" x="1020.5" y="-1329.8" font-family="Times,serif" font-size="14.00" fill="#0000ff">pyramidize___getshift</text>
</g>
<!-- 89&#45;&gt;90 -->
<g id="edge72" class="edge">
<title>89&#45;&gt;90</title>
<path fill="none" stroke="#000000" d="M781.3331,-1269.5252C816.8598,-1280.7428 863.936,-1295.1444 906,-1306.5 917.3223,-1309.5566 929.3261,-1312.6004 941.1361,-1315.4834"/>
<polygon fill="#000000" stroke="#000000" points="940.4493,-1318.9181 950.9916,-1317.864 942.0929,-1312.1138 940.4493,-1318.9181"/>
</g>
<!-- 91 -->
<g id="node57" class="node">
<title>91</title>
<path fill="none" stroke="#0000ff" d="M974.5,-1260.5C974.5,-1260.5 1066.5,-1260.5 1066.5,-1260.5 1072.5,-1260.5 1078.5,-1266.5 1078.5,-1272.5 1078.5,-1272.5 1078.5,-1284.5 1078.5,-1284.5 1078.5,-1290.5 1072.5,-1296.5 1066.5,-1296.5 1066.5,-1296.5 974.5,-1296.5 974.5,-1296.5 968.5,-1296.5 962.5,-1290.5 962.5,-1284.5 962.5,-1284.5 962.5,-1272.5 962.5,-1272.5 962.5,-1266.5 968.5,-1260.5 974.5,-1260.5"/>
<text text-anchor="middle" x="1020.5" y="-1274.8" font-family="Times,serif" font-size="14.00" fill="#0000ff">intshift___getshift</text>
</g>
<!-- 89&#45;&gt;91 -->
<g id="edge73" class="edge">
<title>89&#45;&gt;91</title>
<path fill="none" stroke="#000000" d="M784.8428,-1256.9314C833.1668,-1261.3543 901.4313,-1267.6022 952.058,-1272.2358"/>
<polygon fill="#000000" stroke="#000000" points="951.9807,-1275.7433 962.2581,-1273.1694 952.6187,-1268.7724 951.9807,-1275.7433"/>
</g>
<!-- 92 -->
<g id="node58" class="node">
<title>92</title>
<path fill="none" stroke="#0000ff" d="M970.5,-1205.5C970.5,-1205.5 1070.5,-1205.5 1070.5,-1205.5 1076.5,-1205.5 1082.5,-1211.5 1082.5,-1217.5 1082.5,-1217.5 1082.5,-1229.5 1082.5,-1229.5 1082.5,-1235.5 1076.5,-1241.5 1070.5,-1241.5 1070.5,-1241.5 970.5,-1241.5 970.5,-1241.5 964.5,-1241.5 958.5,-1235.5 958.5,-1229.5 958.5,-1229.5 958.5,-1217.5 958.5,-1217.5 958.5,-1211.5 964.5,-1205.5 970.5,-1205.5"/>
<text text-anchor="middle" x="1020.5" y="-1219.8" font-family="Times,serif" font-size="14.00" fill="#0000ff">lowpass___lowpass</text>
</g>
<!-- 89&#45;&gt;92 -->
<g id="edge71" class="edge">
<title>89&#45;&gt;92</title>
<path fill="none" stroke="#000000" d="M784.8428,-1245.8675C831.9863,-1241.3928 898.1078,-1235.1169 948.3165,-1230.3513"/>
<polygon fill="#000000" stroke="#000000" points="948.8312,-1233.8183 958.4557,-1229.389 948.1697,-1226.8496 948.8312,-1233.8183"/>
</g>
<!-- 95 -->
<g id="node61" class="node">
<title>95</title>
<path fill="none" stroke="#0000ff" d="M961,-1150.5C961,-1150.5 1080,-1150.5 1080,-1150.5 1086,-1150.5 1092,-1156.5 1092,-1162.5 1092,-1162.5 1092,-1174.5 1092,-1174.5 1092,-1180.5 1086,-1186.5 1080,-1186.5 1080,-1186.5 961,-1186.5 961,-1186.5 955,-1186.5 949,-1180.5 949,-1174.5 949,-1174.5 949,-1162.5 949,-1162.5 949,-1156.5 955,-1150.5 961,-1150.5"/>
<text text-anchor="middle" x="1020.5" y="-1164.8" font-family="Times,serif" font-size="14.00" fill="#0000ff">quadpk2d___quadpk2d</text>
</g>
<!-- 89&#45;&gt;95 -->
<g id="edge74" class="edge">
<title>89&#45;&gt;95</title>
<path fill="none" stroke="#000000" d="M784.7142,-1246.8636C811.6354,-1243.1583 843.3526,-1236.4922 870,-1224.5 888.4842,-1216.1815 887.752,-1205.3247 906,-1196.5 916.3306,-1191.5042 927.6291,-1187.3535 938.9758,-1183.9175"/>
<polygon fill="#000000" stroke="#000000" points="940.2788,-1187.1856 948.9365,-1181.0786 938.3601,-1180.4536 940.2788,-1187.1856"/>
</g>
<!-- 94 -->
<g id="node60" class="node">
<title>94</title>
<path fill="none" stroke="#0000ff" d="M672.5,-1123.5C672.5,-1123.5 778.5,-1123.5 778.5,-1123.5 784.5,-1123.5 790.5,-1129.5 790.5,-1135.5 790.5,-1135.5 790.5,-1147.5 790.5,-1147.5 790.5,-1153.5 784.5,-1159.5 778.5,-1159.5 778.5,-1159.5 672.5,-1159.5 672.5,-1159.5 666.5,-1159.5 660.5,-1153.5 660.5,-1147.5 660.5,-1147.5 660.5,-1135.5 660.5,-1135.5 660.5,-1129.5 666.5,-1123.5 672.5,-1123.5"/>
<text text-anchor="middle" x="725.5" y="-1137.8" font-family="Times,serif" font-size="14.00" fill="#0000ff">edginess___edginess</text>
</g>
<!-- 96&#45;&gt;85 -->
<g id="edge75" class="edge">
<title>96&#45;&gt;85</title>
<path fill="none" stroke="#000000" d="M473.7948,-1102.1816C497.1103,-1105.7207 523.7191,-1112.5206 545,-1125.5 566.5714,-1138.6566 559.2623,-1156.6202 581,-1169.5 602.9027,-1182.4776 629.6771,-1189.4409 654.2007,-1193.1067"/>
<polygon fill="#000000" stroke="#000000" points="653.8149,-1196.5861 664.1903,-1194.4412 654.7418,-1189.6478 653.8149,-1196.5861"/>
</g>
<!-- 96&#45;&gt;89 -->
<g id="edge76" class="edge">
<title>96&#45;&gt;89</title>
<path fill="none" stroke="#000000" d="M473.6236,-1098.6203C498.0134,-1101.3758 525.5193,-1108.5462 545,-1125.5 580.3171,-1156.236 545.293,-1194.2179 581,-1224.5 601.6196,-1241.9869 629.9187,-1249.6246 656.0104,-1252.5702"/>
<polygon fill="#000000" stroke="#000000" points="655.9839,-1256.0823 666.2611,-1253.5072 656.6212,-1249.1113 655.9839,-1256.0823"/>
</g>
<!-- 96&#45;&gt;94 -->
<g id="edge79" class="edge">
<title>96&#45;&gt;94</title>
<path fill="none" stroke="#000000" d="M473.74,-1106.2372C523.0637,-1113.1457 595.7385,-1123.3249 650.3429,-1130.9731"/>
<polygon fill="#000000" stroke="#000000" points="649.9299,-1134.4493 660.3187,-1132.3704 650.9009,-1127.517 649.9299,-1134.4493"/>
</g>
<!-- 99 -->
<g id="node64" class="node">
<title>99</title>
<path fill="none" stroke="#0000ff" d="M673.5,-1068.5C673.5,-1068.5 777.5,-1068.5 777.5,-1068.5 783.5,-1068.5 789.5,-1074.5 789.5,-1080.5 789.5,-1080.5 789.5,-1092.5 789.5,-1092.5 789.5,-1098.5 783.5,-1104.5 777.5,-1104.5 777.5,-1104.5 673.5,-1104.5 673.5,-1104.5 667.5,-1104.5 661.5,-1098.5 661.5,-1092.5 661.5,-1092.5 661.5,-1080.5 661.5,-1080.5 661.5,-1074.5 667.5,-1068.5 673.5,-1068.5"/>
<text text-anchor="middle" x="725.5" y="-1082.8" font-family="Times,serif" font-size="14.00" fill="#0000ff">shiftimg___shiftimg</text>
</g>
<!-- 96&#45;&gt;99 -->
<g id="edge77" class="edge">
<title>96&#45;&gt;99</title>
<path fill="none" stroke="#000000" d="M473.74,-1096.3408C523.2857,-1094.4041 596.3933,-1091.5465 651.0792,-1089.409"/>
<polygon fill="#000000" stroke="#000000" points="651.5561,-1092.8931 661.4118,-1089.0051 651.2827,-1085.8984 651.5561,-1092.8931"/>
</g>
<!-- 101 -->
<g id="node66" class="node">
<title>101</title>
<path fill="none" stroke="#0000ff" d="M666.5,-1013.5C666.5,-1013.5 784.5,-1013.5 784.5,-1013.5 790.5,-1013.5 796.5,-1019.5 796.5,-1025.5 796.5,-1025.5 796.5,-1037.5 796.5,-1037.5 796.5,-1043.5 790.5,-1049.5 784.5,-1049.5 784.5,-1049.5 666.5,-1049.5 666.5,-1049.5 660.5,-1049.5 654.5,-1043.5 654.5,-1037.5 654.5,-1037.5 654.5,-1025.5 654.5,-1025.5 654.5,-1019.5 660.5,-1013.5 666.5,-1013.5"/>
<text text-anchor="middle" x="725.5" y="-1027.8" font-family="Times,serif" font-size="14.00" fill="#0000ff">momploc___momploc</text>
</g>
<!-- 96&#45;&gt;101 -->
<g id="edge78" class="edge">
<title>96&#45;&gt;101</title>
<path fill="none" stroke="#000000" d="M473.6012,-1084.1139C504.9783,-1076.1288 545.0776,-1066.2708 581,-1058.5 601.4716,-1054.0716 623.6685,-1049.7076 644.3805,-1045.8218"/>
<polygon fill="#000000" stroke="#000000" points="645.224,-1049.225 654.4149,-1043.9545 643.9433,-1042.3432 645.224,-1049.225"/>
</g>
<!-- 97 -->
<g id="node63" class="node">
<title>97</title>
<path fill="none" stroke="#0000ff" d="M67.5,-1369.5C67.5,-1369.5 188.5,-1369.5 188.5,-1369.5 194.5,-1369.5 200.5,-1375.5 200.5,-1381.5 200.5,-1381.5 200.5,-1393.5 200.5,-1393.5 200.5,-1399.5 194.5,-1405.5 188.5,-1405.5 188.5,-1405.5 67.5,-1405.5 67.5,-1405.5 61.5,-1405.5 55.5,-1399.5 55.5,-1393.5 55.5,-1393.5 55.5,-1381.5 55.5,-1381.5 55.5,-1375.5 61.5,-1369.5 67.5,-1369.5"/>
<text text-anchor="middle" x="128" y="-1383.8" font-family="Times,serif" font-size="14.00" fill="#0000ff">segmorph___segmorph</text>
</g>
<!-- 97&#45;&gt;97 -->
<g id="edge80" class="edge">
<title>97&#45;&gt;97</title>
<path fill="none" stroke="#000000" d="M75.8685,-1405.5287C67.0096,-1415.1943 84.3867,-1424 128,-1424 155.2583,-1424 172.2681,-1420.5603 179.0295,-1415.6207"/>
<polygon fill="#000000" stroke="#000000" points="182.5252,-1415.8496 180.1315,-1405.5287 175.5666,-1415.0896 182.5252,-1415.8496"/>
</g>
</g>
</svg>
